<svg width="44" height="36" viewBox="0 0 44 36" fill="none" xmlns="http://www.w3.org/2000/svg">
<path d="M41.3359 0.304688H2.66406C1.37031 0.304688 0.320312 1.35938 0.320312 2.64844V33.3516C0.320312 33.9797 0.564062 34.5656 1.00469 35.0109C1.45 35.4516 2.03594 35.6953 2.66406 35.6953H41.3359C42.625 35.6953 43.6797 34.6453 43.6797 33.3516V26.8781C43.6797 26.8734 43.6797 26.8734 43.6797 26.8687V3.58594C43.6797 3.58125 43.6797 3.58125 43.6797 3.57656V2.64844C43.6797 1.35938 42.625 0.304688 41.3359 0.304688V0.304688ZM7.46875 32.1797C7.46875 32.4375 7.25781 32.6484 7 32.6484C6.74219 32.6484 6.53125 32.4375 6.53125 32.1797C6.53125 31.9219 6.74219 31.7109 7 31.7109C7.25781 31.7109 7.46875 31.9219 7.46875 32.1797Z" fill="#A9B1C4"/>
<path d="M7 30.7734C6.22188 30.7734 5.59375 31.4063 5.59375 32.1797C5.59375 32.9578 6.22188 33.5859 7 33.5859C7.77344 33.5859 8.40625 32.9578 8.40625 32.1797C8.40625 31.4063 7.77344 30.7734 7 30.7734ZM7 32.6484C6.74219 32.6484 6.53125 32.4375 6.53125 32.1797C6.53125 31.9219 6.74219 31.7109 7 31.7109C7.25781 31.7109 7.46875 31.9219 7.46875 32.1797C7.46875 32.4375 7.25781 32.6484 7 32.6484Z" fill="#A9B1C4"/>
<path d="M34.6377 2.41406C33.8596 2.41406 33.2314 3.04688 33.2314 3.82031C33.2314 4.59844 33.8596 5.22656 34.6377 5.22656C35.4111 5.22656 36.0439 4.59844 36.0439 3.82031C36.0439 3.04688 35.4111 2.41406 34.6377 2.41406ZM34.6377 4.28906C34.3752 4.28906 34.1689 4.07813 34.1689 3.82031C34.1689 3.5625 34.3752 3.35156 34.6377 3.35156C34.8955 3.35156 35.1064 3.5625 35.1064 3.82031C35.1064 4.07813 34.8955 4.28906 34.6377 4.28906Z" fill="#A9B1C4"/>
<path d="M41.3359 0.304688H2.66406C1.37031 0.304688 0.320312 1.35938 0.320312 2.64844V33.3516C0.320312 33.9797 0.564062 34.5656 1.00469 35.0109C1.45 35.4516 2.03594 35.6953 2.66406 35.6953H41.3359C42.625 35.6953 43.6797 34.6453 43.6797 33.3516V26.8781C43.6797 26.8734 43.6797 26.8734 43.6797 26.8687V3.58594C43.6797 3.58125 43.6797 3.58125 43.6797 3.57656V2.64844C43.6797 1.35938 42.625 0.304688 41.3359 0.304688V0.304688ZM32.7391 1.24219H36.5312V4.52344C36.5312 5.55938 35.6875 6.39844 34.6141 6.39844C33.5828 6.39844 32.7391 5.55938 32.7391 4.52344V1.24219ZM5.10625 1.24219H8.89375V4.52344C8.89375 5.55938 8.05 6.39844 6.98125 6.39844C5.94531 6.39844 5.10625 5.55938 5.10625 4.52344V1.24219ZM8.89375 34.7578H5.10625V31.4766C5.10625 30.4453 5.94531 29.6016 7.01875 29.6016C8.05 29.6016 8.89375 30.4453 8.89375 31.4766V34.7578ZM36.5312 34.7578H32.7391V31.4766C32.7391 30.4453 33.5828 29.6016 34.6562 29.6016C35.6875 29.6016 36.5312 30.4453 36.5312 31.4766V34.7578ZM42.7422 17.9109H41.725C41.4672 17.9109 41.2563 18.1219 41.2563 18.3797C41.2563 18.6422 41.4672 18.8484 41.725 18.8484H42.7422V20.1703H41.725C41.4672 20.1703 41.2563 20.3812 41.2563 20.6391C41.2563 20.8969 41.4672 21.1078 41.725 21.1078H42.7422V22.425H41.725C41.4672 22.425 41.2563 22.6359 41.2563 22.8938C41.2563 23.1516 41.4672 23.3625 41.725 23.3625H42.7422V24.5062H40.7078V16.8281H42.7422V17.9109ZM42.7422 7.70156H41.725C41.4672 7.70156 41.2563 7.9125 41.2563 8.17031C41.2563 8.42812 41.4672 8.63906 41.725 8.63906H42.7422V9.62344H41.725C41.4672 9.62344 41.2563 9.83438 41.2563 10.0922C41.2563 10.35 41.4672 10.5609 41.725 10.5609H42.7422V11.5406H41.725C41.4672 11.5406 41.2563 11.7516 41.2563 12.0094C41.2563 12.2672 41.4672 12.4781 41.725 12.4781H42.7422V13.4625H41.725C41.4672 13.4625 41.2563 13.6734 41.2563 13.9312C41.2563 14.1891 41.4672 14.4 41.725 14.4H42.7422V15.8906H40.7078V6.04688H42.7422V7.70156ZM42.7422 5.10938H40.2391C39.9813 5.10938 39.7703 5.32031 39.7703 5.57812V24.975C39.7703 25.2328 39.9813 25.4437 40.2391 25.4437H42.7422V26.4H39.2875V4.05469H42.7422V5.10938ZM42.7422 3.11719H38.8187C38.5609 3.11719 38.35 3.32812 38.35 3.58594V26.8687C38.35 27.1266 38.5609 27.3375 38.8187 27.3375H42.7422V33.3516C42.7422 34.1297 42.1094 34.7578 41.3359 34.7578H37.4688V31.4766C37.4688 29.925 36.2078 28.6641 34.6141 28.6641C33.0672 28.6641 31.8016 29.925 31.8016 31.4766V34.7578H9.83125V31.4766C9.83125 29.925 8.57031 28.6641 6.98125 28.6641C5.42969 28.6641 4.16875 29.925 4.16875 31.4766V34.7578H2.66406C2.28906 34.7578 1.93281 34.6125 1.67031 34.3453C1.40312 34.0828 1.25781 33.7266 1.25781 33.3516V2.64844C1.25781 1.875 1.88594 1.24219 2.66406 1.24219H4.16875V4.52344C4.16875 6.075 5.42969 7.33594 7.01875 7.33594C8.57031 7.33594 9.83125 6.075 9.83125 4.52344V1.24219H31.8016V4.52344C31.8016 6.075 33.0672 7.33594 34.6562 7.33594C36.2078 7.33594 37.4688 6.075 37.4688 4.52344V1.24219H41.3359C42.1094 1.24219 42.7422 1.875 42.7422 2.64844V3.11719Z" fill="#A9B1C4"/>
<path d="M7.01895 29.6016C5.94551 29.6016 5.10645 30.4453 5.10645 31.4766V34.7578H8.89395V31.4766C8.89395 30.4453 8.0502 29.6016 7.01895 29.6016ZM7.0002 33.5859C6.22207 33.5859 5.59395 32.9578 5.59395 32.1797C5.59395 31.4063 6.22207 30.7734 7.0002 30.7734C7.77363 30.7734 8.40645 31.4063 8.40645 32.1797C8.40645 32.9578 7.77363 33.5859 7.0002 33.5859Z" fill="#E9E9E9"/>
<path d="M34.6564 29.6016C33.583 29.6016 32.7393 30.4453 32.7393 31.4766V34.7578H36.5314V31.4766C36.5314 30.4453 35.6877 29.6016 34.6564 29.6016ZM34.6564 33.5859C33.8783 33.5859 33.2502 32.9578 33.2502 32.1797C33.2502 31.4063 33.8783 30.7734 34.6564 30.7734C35.4299 30.7734 36.0627 31.4063 36.0627 32.1797C36.0627 32.9578 35.4299 33.5859 34.6564 33.5859Z" fill="#E9E9E9"/>
<path d="M34.6562 30.7734C33.8781 30.7734 33.25 31.4063 33.25 32.1797C33.25 32.9578 33.8781 33.5859 34.6562 33.5859C35.4297 33.5859 36.0625 32.9578 36.0625 32.1797C36.0625 31.4063 35.4297 30.7734 34.6562 30.7734ZM34.6562 32.6484C34.3984 32.6484 34.1875 32.4375 34.1875 32.1797C34.1875 31.9219 34.3984 31.7109 34.6562 31.7109C34.9141 31.7109 35.125 31.9219 35.125 32.1797C35.125 32.4375 34.9141 32.6484 34.6562 32.6484Z" fill="#A9B1C4"/>
<path d="M34.6562 32.6484C34.9151 32.6484 35.125 32.4386 35.125 32.1797C35.125 31.9208 34.9151 31.7109 34.6562 31.7109C34.3974 31.7109 34.1875 31.9208 34.1875 32.1797C34.1875 32.4386 34.3974 32.6484 34.6562 32.6484Z" fill="white"/>
<path d="M41.2564 18.3797C41.2564 18.6422 41.4674 18.8484 41.7252 18.8484H42.7424V20.1703H41.7252C41.4674 20.1703 41.2564 20.3812 41.2564 20.6391C41.2564 20.8969 41.4674 21.1078 41.7252 21.1078H42.7424V22.425H41.7252C41.4674 22.425 41.2564 22.6359 41.2564 22.8938C41.2564 23.1516 41.4674 23.3625 41.7252 23.3625H42.7424V24.5062H40.708V16.8281H42.7424V17.9109H41.7252C41.4674 17.9109 41.2564 18.1219 41.2564 18.3797Z" fill="#E9E9E9"/>
<path d="M41.2564 8.17031C41.2564 8.42812 41.4674 8.63906 41.7252 8.63906H42.7424V9.62344H41.7252C41.4674 9.62344 41.2564 9.83438 41.2564 10.0922C41.2564 10.35 41.4674 10.5609 41.7252 10.5609H42.7424V11.5406H41.7252C41.4674 11.5406 41.2564 11.7516 41.2564 12.0094C41.2564 12.2672 41.4674 12.4781 41.7252 12.4781H42.7424V13.4625H41.7252C41.4674 13.4625 41.2564 13.6734 41.2564 13.9312C41.2564 14.1891 41.4674 14.4 41.7252 14.4H42.7424V15.8906H40.708V6.04688H42.7424V7.70156H41.7252C41.4674 7.70156 41.2564 7.9125 41.2564 8.17031Z" fill="#E9E9E9"/>
<path d="M39.7704 5.57812V24.975C39.7704 25.2328 39.9814 25.4437 40.2392 25.4437H42.7423V26.4H39.2876V4.05469H42.7423V5.10937H40.2392C39.9814 5.10937 39.7704 5.32031 39.7704 5.57812Z" fill="white"/>
<path d="M32.7393 1.24219V4.52344C32.7393 5.55938 33.583 6.39844 34.6143 6.39844C35.6877 6.39844 36.5314 5.55938 36.5314 4.52344V1.24219H32.7393ZM34.6377 5.22656C33.8596 5.22656 33.2314 4.59844 33.2314 3.82031C33.2314 3.04688 33.8596 2.41406 34.6377 2.41406C35.4111 2.41406 36.0439 3.04688 36.0439 3.82031C36.0439 4.59844 35.4111 5.22656 34.6377 5.22656Z" fill="#E9E9E9"/>
<path d="M34.6377 4.28906C34.8966 4.28906 35.1064 4.0792 35.1064 3.82031C35.1064 3.56143 34.8966 3.35156 34.6377 3.35156C34.3788 3.35156 34.1689 3.56143 34.1689 3.82031C34.1689 4.0792 34.3788 4.28906 34.6377 4.28906Z" fill="white"/>
<path d="M5.10645 1.24219V4.52344C5.10645 5.55938 5.94551 6.39844 6.98145 6.39844C8.0502 6.39844 8.89395 5.55938 8.89395 4.52344V1.24219H5.10645ZM7.0002 5.22656C6.22207 5.22656 5.59395 4.59844 5.59395 3.82031C5.59395 3.04688 6.22207 2.41406 7.0002 2.41406C7.77363 2.41406 8.40645 3.04688 8.40645 3.82031C8.40645 4.59844 7.77363 5.22656 7.0002 5.22656Z" fill="#E9E9E9"/>
<path d="M7 2.41406C6.22188 2.41406 5.59375 3.04688 5.59375 3.82031C5.59375 4.59844 6.22188 5.22656 7 5.22656C7.77344 5.22656 8.40625 4.59844 8.40625 3.82031C8.40625 3.04688 7.77344 2.41406 7 2.41406ZM7 4.28906C6.74219 4.28906 6.53125 4.07813 6.53125 3.82031C6.53125 3.5625 6.74219 3.35156 7 3.35156C7.25781 3.35156 7.46875 3.5625 7.46875 3.82031C7.46875 4.07813 7.25781 4.28906 7 4.28906Z" fill="#A9B1C4"/>
<path d="M7 4.28906C7.25888 4.28906 7.46875 4.0792 7.46875 3.82031C7.46875 3.56143 7.25888 3.35156 7 3.35156C6.74112 3.35156 6.53125 3.56143 6.53125 3.82031C6.53125 4.0792 6.74112 4.28906 7 4.28906Z" fill="white"/>
<path d="M38.8187 3.11719H42.7422V2.64844C42.7422 1.875 42.1094 1.24219 41.3359 1.24219H37.4688V4.52344C37.4688 6.075 36.2078 7.33594 34.6562 7.33594C33.0672 7.33594 31.8016 6.075 31.8016 4.52344V1.24219H9.83125V4.52344C9.83125 6.075 8.57031 7.33594 7.01875 7.33594C5.42969 7.33594 4.16875 6.075 4.16875 4.52344V1.24219H2.66406C1.88594 1.24219 1.25781 1.875 1.25781 2.64844V33.3516C1.25781 33.7266 1.40312 34.0828 1.67031 34.3453C1.93281 34.6125 2.28906 34.7578 2.66406 34.7578H4.16875V31.4766C4.16875 29.925 5.42969 28.6641 6.98125 28.6641C8.57031 28.6641 9.83125 29.925 9.83125 31.4766V34.7578H31.8016V31.4766C31.8016 29.925 33.0672 28.6641 34.6141 28.6641C36.2078 28.6641 37.4688 29.925 37.4688 31.4766V34.7578H41.3359C42.1094 34.7578 42.7422 34.1297 42.7422 33.3516V27.3375H38.8187C38.5609 27.3375 38.35 27.1266 38.35 26.8687V3.58594C38.35 3.32812 38.5609 3.11719 38.8187 3.11719ZM36.1797 25.8516C36.1797 27.1453 35.125 28.1953 33.8359 28.1953H10.1641C8.87031 28.1953 7.82031 27.1453 7.82031 25.8516V10.1484C7.82031 8.85938 8.87031 7.80469 10.1641 7.80469H33.8359C35.125 7.80469 36.1797 8.85938 36.1797 10.1484V25.8516Z" fill="white"/>
<path d="M33.8359 7.80469H10.1641C8.87031 7.80469 7.82031 8.85938 7.82031 10.1484V25.8516C7.82031 27.1453 8.87031 28.1953 10.1641 28.1953H33.8359C35.125 28.1953 36.1797 27.1453 36.1797 25.8516V10.1484C36.1797 8.85938 35.125 7.80469 33.8359 7.80469ZM35.2422 25.8516C35.2422 26.6297 34.6094 27.2578 33.8359 27.2578H10.1641C9.38594 27.2578 8.75781 26.6297 8.75781 25.8516V10.1484C8.75781 9.375 9.38594 8.74219 10.1641 8.74219H33.8359C34.6094 8.74219 35.2422 9.375 35.2422 10.1484V25.8516Z" fill="#A9B1C4"/>
<path d="M33.8359 8.74219H10.1641C9.38594 8.74219 8.75781 9.375 8.75781 10.1484V25.8516C8.75781 26.6297 9.38594 27.2578 10.1641 27.2578H33.8359C34.6094 27.2578 35.2422 26.6297 35.2422 25.8516V10.1484C35.2422 9.375 34.6094 8.74219 33.8359 8.74219ZM17.9078 20.5406C17.7016 20.8641 17.3922 21.1172 16.9891 21.3C16.5906 21.4828 16.1125 21.5766 15.5594 21.5766C14.8984 21.5766 14.35 21.45 13.9187 21.2016C13.6141 21.0188 13.3656 20.7797 13.1734 20.4797C12.9859 20.1797 12.8875 19.8844 12.8875 19.6031C12.8875 19.4391 12.9484 19.2984 13.0609 19.1812C13.1734 19.0641 13.3234 19.0031 13.4969 19.0031C13.6422 19.0031 13.7641 19.05 13.8625 19.1391C13.9609 19.2328 14.0453 19.3688 14.1156 19.5469C14.2 19.7625 14.2938 19.9406 14.3922 20.0813C14.4906 20.2266 14.6312 20.3437 14.8141 20.4375C14.9922 20.5312 15.2266 20.5781 15.5219 20.5781C15.925 20.5781 16.2531 20.4844 16.5016 20.2969C16.7547 20.1094 16.8813 19.875 16.8813 19.5938C16.8813 19.3688 16.8156 19.1906 16.6797 19.05C16.5438 18.9141 16.3656 18.8062 16.15 18.7312C15.9344 18.6609 15.6484 18.5812 15.2875 18.5016C14.8047 18.3844 14.4016 18.2531 14.0781 18.1031C13.7547 17.9531 13.4922 17.7469 13.3047 17.4844C13.1125 17.2266 13.0188 16.8984 13.0188 16.5141C13.0188 16.1438 13.1172 15.8156 13.3187 15.5297C13.5203 15.2437 13.8109 15.0234 14.1953 14.8687C14.575 14.7141 15.025 14.6344 15.5406 14.6344C15.9531 14.6344 16.3094 14.6859 16.6094 14.7891C16.9094 14.8922 17.1578 15.0281 17.3594 15.1969C17.5562 15.3656 17.7016 15.5437 17.7906 15.7312C17.8844 15.9141 17.9312 16.0969 17.9312 16.275C17.9312 16.4344 17.8703 16.5844 17.7578 16.7109C17.6453 16.8422 17.5 16.9078 17.3313 16.9078C17.1766 16.9078 17.0547 16.8656 16.975 16.7906C16.8953 16.7109 16.8063 16.5844 16.7125 16.4062C16.5906 16.1531 16.4453 15.9563 16.2719 15.8156C16.1031 15.675 15.8266 15.6 15.4469 15.6C15.0953 15.6 14.8141 15.6797 14.5984 15.8344C14.3828 15.9891 14.275 16.1719 14.275 16.3875C14.275 16.5234 14.3125 16.6406 14.3875 16.7391C14.4578 16.8328 14.5609 16.9172 14.6875 16.9875C14.8188 17.0578 14.9453 17.1141 15.0766 17.1516C15.2078 17.1937 15.4234 17.25 15.7281 17.3297C16.1078 17.4141 16.45 17.5125 16.7547 17.6203C17.0641 17.7281 17.3219 17.8547 17.5375 18.0094C17.7531 18.1641 17.9219 18.3563 18.0438 18.5906C18.1609 18.8203 18.2219 19.1062 18.2219 19.4484C18.2219 19.8516 18.1188 20.2172 17.9078 20.5406V20.5406ZM24.1609 20.5406C23.9547 20.8641 23.6453 21.1172 23.2422 21.3C22.8391 21.4828 22.3656 21.5766 21.8125 21.5766C21.1516 21.5766 20.6031 21.45 20.1719 21.2016C19.8672 21.0188 19.6187 20.7797 19.4266 20.4797C19.2391 20.1797 19.1406 19.8844 19.1406 19.6031C19.1406 19.4391 19.2016 19.2984 19.3141 19.1812C19.4266 19.0641 19.5766 19.0031 19.75 19.0031C19.8953 19.0031 20.0172 19.05 20.1156 19.1391C20.2141 19.2328 20.2984 19.3688 20.3688 19.5469C20.4531 19.7625 20.5469 19.9406 20.6453 20.0813C20.7438 20.2266 20.8844 20.3437 21.0672 20.4375C21.2453 20.5312 21.4797 20.5781 21.775 20.5781C22.1781 20.5781 22.5063 20.4844 22.7547 20.2969C23.0078 20.1094 23.1344 19.875 23.1344 19.5938C23.1344 19.3688 23.0641 19.1906 22.9328 19.05C22.7969 18.9141 22.6188 18.8062 22.4031 18.7312C22.1875 18.6609 21.9016 18.5812 21.5406 18.5016C21.0578 18.3844 20.6547 18.2531 20.3312 18.1031C20.0078 17.9531 19.7453 17.7469 19.5578 17.4844C19.3656 17.2266 19.2719 16.8984 19.2719 16.5141C19.2719 16.1438 19.3703 15.8156 19.5719 15.5297C19.7734 15.2437 20.0641 15.0234 20.4484 14.8687C20.8281 14.7141 21.2781 14.6344 21.7938 14.6344C22.2063 14.6344 22.5625 14.6859 22.8625 14.7891C23.1625 14.8922 23.4109 15.0281 23.6125 15.1969C23.8094 15.3656 23.9547 15.5437 24.0438 15.7312C24.1375 15.9141 24.1844 16.0969 24.1844 16.275C24.1844 16.4344 24.1234 16.5844 24.0109 16.7109C23.8984 16.8422 23.7531 16.9078 23.5844 16.9078C23.425 16.9078 23.3078 16.8656 23.2281 16.7906C23.1484 16.7109 23.0594 16.5844 22.9656 16.4062C22.8437 16.1531 22.6984 15.9563 22.525 15.8156C22.3563 15.675 22.0797 15.6 21.7 15.6C21.3484 15.6 21.0672 15.6797 20.8516 15.8344C20.6359 15.9891 20.5281 16.1719 20.5281 16.3875C20.5281 16.5234 20.5656 16.6406 20.6406 16.7391C20.7109 16.8328 20.8141 16.9172 20.9406 16.9875C21.0719 17.0578 21.1984 17.1141 21.3297 17.1516C21.4609 17.1937 21.6766 17.25 21.9812 17.3297C22.3609 17.4141 22.7031 17.5125 23.0078 17.6203C23.3172 17.7281 23.575 17.8547 23.7906 18.0094C24.0062 18.1641 24.175 18.3563 24.2969 18.5906C24.4141 18.8203 24.475 19.1062 24.475 19.4484C24.475 19.8516 24.3719 20.2172 24.1609 20.5406V20.5406ZM31.2672 19.1906C31.1969 19.5234 31.0891 19.8234 30.9438 20.0906C30.7984 20.3578 30.6109 20.5969 30.3812 20.8078C30.1984 20.9672 30.0016 21.0984 29.7906 21.1969C29.575 21.2953 29.3453 21.3609 29.1016 21.4031C28.8578 21.4406 28.5766 21.4594 28.2719 21.4594H26.5C26.2516 21.4594 26.0641 21.4219 25.9422 21.3469C25.8156 21.2719 25.7359 21.1688 25.6937 21.0328C25.6562 20.8969 25.6375 20.7234 25.6375 20.5031V15.5813C25.6375 15.2906 25.7031 15.0797 25.8344 14.9484C25.9656 14.8172 26.1766 14.7516 26.4719 14.7516H28.2437C28.7031 14.7516 29.0969 14.7938 29.4297 14.8781C29.7578 14.9625 30.0578 15.1219 30.325 15.3609C31.0234 15.9562 31.375 16.8656 31.375 18.0891C31.375 18.4922 31.3375 18.8578 31.2672 19.1906V19.1906Z" fill="#E9E9E9"/>
<path d="M18.2221 19.4483C18.2221 19.8515 18.1189 20.2171 17.908 20.5405C17.7018 20.864 17.3924 21.1171 16.9893 21.2999C16.5908 21.4827 16.1127 21.5765 15.5596 21.5765C14.8986 21.5765 14.3502 21.4499 13.9189 21.2015C13.6143 21.0187 13.3658 20.7796 13.1736 20.4796C12.9861 20.1796 12.8877 19.8843 12.8877 19.603C12.8877 19.439 12.9486 19.2983 13.0611 19.1812C13.1736 19.064 13.3236 19.003 13.4971 19.003C13.6424 19.003 13.7643 19.0499 13.8627 19.139C13.9611 19.2327 14.0455 19.3687 14.1158 19.5468C14.2002 19.7624 14.2939 19.9405 14.3924 20.0812C14.4908 20.2265 14.6314 20.3437 14.8143 20.4374C14.9924 20.5312 15.2268 20.578 15.5221 20.578C15.9252 20.578 16.2533 20.4843 16.5018 20.2968C16.7549 20.1093 16.8814 19.8749 16.8814 19.5937C16.8814 19.3687 16.8158 19.1905 16.6799 19.0499C16.5439 18.914 16.3658 18.8062 16.1502 18.7312C15.9346 18.6608 15.6486 18.5812 15.2877 18.5015C14.8049 18.3843 14.4018 18.253 14.0783 18.103C13.7549 17.953 13.4924 17.7468 13.3049 17.4843C13.1127 17.2265 13.0189 16.8983 13.0189 16.514C13.0189 16.1437 13.1174 15.8155 13.3189 15.5296C13.5205 15.2437 13.8111 15.0233 14.1955 14.8687C14.5752 14.714 15.0252 14.6343 15.5408 14.6343C15.9533 14.6343 16.3096 14.6858 16.6096 14.789C16.9096 14.8921 17.158 15.028 17.3596 15.1968C17.5564 15.3655 17.7018 15.5437 17.7908 15.7312C17.8846 15.914 17.9314 16.0968 17.9314 16.2749C17.9314 16.4343 17.8705 16.5843 17.758 16.7108C17.6455 16.8421 17.5002 16.9077 17.3314 16.9077C17.1768 16.9077 17.0549 16.8655 16.9752 16.7905C16.8955 16.7108 16.8064 16.5843 16.7127 16.4062C16.5908 16.153 16.4455 15.9562 16.2721 15.8155C16.1033 15.6749 15.8268 15.5999 15.4471 15.5999C15.0955 15.5999 14.8143 15.6796 14.5986 15.8343C14.383 15.989 14.2752 16.1718 14.2752 16.3874C14.2752 16.5233 14.3127 16.6405 14.3877 16.739C14.458 16.8327 14.5611 16.9171 14.6877 16.9874C14.8189 17.0577 14.9455 17.114 15.0768 17.1515C15.208 17.1937 15.4236 17.2499 15.7283 17.3296C16.108 17.414 16.4502 17.5124 16.7549 17.6202C17.0643 17.728 17.3221 17.8546 17.5377 18.0093C17.7533 18.164 17.9221 18.3562 18.0439 18.5905C18.1611 18.8202 18.2221 19.1062 18.2221 19.4483V19.4483Z" fill="#A9B1C4"/>
<path d="M24.475 19.4483C24.475 19.8515 24.3719 20.2171 24.1609 20.5405C23.9547 20.864 23.6453 21.1171 23.2422 21.2999C22.8391 21.4827 22.3656 21.5765 21.8125 21.5765C21.1516 21.5765 20.6031 21.4499 20.1719 21.2015C19.8672 21.0187 19.6187 20.7796 19.4266 20.4796C19.2391 20.1796 19.1406 19.8843 19.1406 19.603C19.1406 19.439 19.2016 19.2983 19.3141 19.1812C19.4266 19.064 19.5766 19.003 19.75 19.003C19.8953 19.003 20.0172 19.0499 20.1156 19.139C20.2141 19.2327 20.2984 19.3687 20.3687 19.5468C20.4531 19.7624 20.5469 19.9405 20.6453 20.0812C20.7437 20.2265 20.8844 20.3437 21.0672 20.4374C21.2453 20.5312 21.4797 20.578 21.775 20.578C22.1781 20.578 22.5062 20.4843 22.7547 20.2968C23.0078 20.1093 23.1344 19.8749 23.1344 19.5937C23.1344 19.3687 23.0641 19.1905 22.9328 19.0499C22.7969 18.914 22.6187 18.8062 22.4031 18.7312C22.1875 18.6608 21.9016 18.5812 21.5406 18.5015C21.0578 18.3843 20.6547 18.253 20.3312 18.103C20.0078 17.953 19.7453 17.7468 19.5578 17.4843C19.3656 17.2265 19.2719 16.8983 19.2719 16.514C19.2719 16.1437 19.3703 15.8155 19.5719 15.5296C19.7734 15.2437 20.0641 15.0233 20.4484 14.8687C20.8281 14.714 21.2781 14.6343 21.7937 14.6343C22.2062 14.6343 22.5625 14.6858 22.8625 14.789C23.1625 14.8921 23.4109 15.028 23.6125 15.1968C23.8094 15.3655 23.9547 15.5437 24.0437 15.7312C24.1375 15.914 24.1844 16.0968 24.1844 16.2749C24.1844 16.4343 24.1234 16.5843 24.0109 16.7108C23.8984 16.8421 23.7531 16.9077 23.5844 16.9077C23.425 16.9077 23.3078 16.8655 23.2281 16.7905C23.1484 16.7108 23.0594 16.5843 22.9656 16.4062C22.8437 16.153 22.6984 15.9562 22.525 15.8155C22.3563 15.6749 22.0797 15.5999 21.7 15.5999C21.3484 15.5999 21.0672 15.6796 20.8516 15.8343C20.6359 15.989 20.5281 16.1718 20.5281 16.3874C20.5281 16.5233 20.5656 16.6405 20.6406 16.739C20.7109 16.8327 20.8141 16.9171 20.9406 16.9874C21.0719 17.0577 21.1984 17.114 21.3297 17.1515C21.4609 17.1937 21.6766 17.2499 21.9812 17.3296C22.3609 17.414 22.7031 17.5124 23.0078 17.6202C23.3172 17.728 23.575 17.8546 23.7906 18.0093C24.0062 18.164 24.175 18.3562 24.2969 18.5905C24.4141 18.8202 24.475 19.1062 24.475 19.4483V19.4483Z" fill="#A9B1C4"/>
<path d="M30.3252 15.3608C30.058 15.1218 29.758 14.9624 29.4299 14.878C29.0971 14.7937 28.7033 14.7515 28.2439 14.7515H26.4721C26.1768 14.7515 25.9658 14.8171 25.8346 14.9483C25.7033 15.0796 25.6377 15.2905 25.6377 15.5812V20.503C25.6377 20.7233 25.6564 20.8968 25.6939 21.0327C25.7361 21.1687 25.8158 21.2718 25.9424 21.3468C26.0643 21.4218 26.2518 21.4593 26.5002 21.4593H28.2721C28.5768 21.4593 28.858 21.4405 29.1018 21.403C29.3455 21.3608 29.5752 21.2952 29.7908 21.1968C30.0018 21.0983 30.1986 20.9671 30.3814 20.8077C30.6111 20.5968 30.7986 20.3577 30.9439 20.0905C31.0893 19.8233 31.1971 19.5233 31.2674 19.1905C31.3377 18.8577 31.3752 18.4921 31.3752 18.089C31.3752 16.8655 31.0236 15.9562 30.3252 15.3608V15.3608ZM29.3127 20.0671C29.2143 20.1515 29.0924 20.2218 28.9564 20.2687C28.8205 20.3202 28.6893 20.3483 28.558 20.3624C28.4314 20.3765 28.2533 20.3812 28.0283 20.3812H26.9971V15.8249H27.8971C28.3096 15.8249 28.6658 15.8718 28.9564 15.9608C29.2518 16.0499 29.4955 16.2608 29.6971 16.589C29.8986 16.9218 29.9971 17.414 29.9971 18.0796C29.9971 19.0171 29.7674 19.678 29.3127 20.0671V20.0671Z" fill="#A9B1C4"/>
<path d="M29.9971 18.0796C29.9971 19.0171 29.7674 19.6781 29.3127 20.0671C29.2143 20.1515 29.0924 20.2218 28.9564 20.2687C28.8205 20.3203 28.6893 20.3484 28.558 20.3625C28.4314 20.3765 28.2533 20.3812 28.0283 20.3812H26.9971V15.825H27.8971C28.3096 15.825 28.6658 15.8718 28.9564 15.9609C29.2518 16.05 29.4955 16.2609 29.6971 16.589C29.8986 16.9218 29.9971 17.414 29.9971 18.0796V18.0796Z" fill="#E9E9E9"/>
</svg>
