<svg width="44" height="37" viewBox="0 0 44 37" fill="none" xmlns="http://www.w3.org/2000/svg">
<path d="M27.8828 28.4173V29.7251C27.8828 30.9251 28.1172 32.1017 28.5719 33.2173L28.7219 33.5689H30.5125C31.2859 33.5689 31.9188 34.2017 31.9188 34.9751C31.9188 35.3548 31.7687 35.7111 31.5016 35.9736C31.2391 36.2361 30.8875 36.3814 30.5125 36.3814H13.4125C12.6391 36.3814 12.0063 35.7486 12.0063 34.9751C12.0063 34.5954 12.1562 34.2392 12.4234 33.9767C12.6859 33.7142 13.0375 33.5689 13.4125 33.5689H15.2781L15.4281 33.2173C15.8828 32.1017 16.1172 30.9251 16.1172 29.7251V28.4173H0.320312V0.0532227H43.6797V28.4173H27.8828Z" fill="#A9B1C4"/>
<path d="M43.6797 28.4173V0.0532227H0.320312V28.4173H16.1172V29.7251C16.1172 30.9251 15.8828 32.1017 15.4281 33.2173L15.2781 33.5689H13.4125C13.0375 33.5689 12.6859 33.7142 12.4234 33.9767C12.1562 34.2392 12.0063 34.5954 12.0063 34.9751C12.0063 35.7486 12.6391 36.3814 13.4125 36.3814H30.5125C30.8875 36.3814 31.2391 36.2361 31.5016 35.9736C31.7687 35.7111 31.9188 35.3548 31.9188 34.9751C31.9188 34.2017 31.2859 33.5689 30.5125 33.5689H28.7219L28.5719 33.2173C28.1172 32.1017 27.8828 30.9251 27.8828 29.7251V28.4173H43.6797ZM1.25781 0.990723H42.7422V21.672H1.25781V0.990723ZM30.5125 34.5064C30.7703 34.5064 30.9813 34.7173 30.9813 34.9751C30.9813 35.1017 30.9344 35.2142 30.8406 35.3032C30.7516 35.3923 30.6344 35.4439 30.5125 35.4439H13.4125C13.1547 35.4439 12.9438 35.2329 12.9438 34.9751C12.9438 34.8486 12.9906 34.7361 13.0844 34.647C13.1734 34.5579 13.2906 34.5064 13.4125 34.5064H30.5125ZM27.7047 33.5689H16.2953C16.7969 32.3407 17.0547 31.047 17.0547 29.7251V28.4173H26.9453V29.7251C26.9453 31.047 27.2031 32.3407 27.7047 33.5689ZM1.25781 27.4798V22.6095H42.7422V27.4798H1.25781Z" fill="#A9B1C4"/>
<path d="M30.9812 34.9751C30.9812 35.1017 30.9343 35.2142 30.8406 35.3032C30.7515 35.3923 30.6344 35.4438 30.5125 35.4438H13.4125C13.1547 35.4438 12.9437 35.2329 12.9437 34.9751C12.9437 34.8485 12.9906 34.736 13.0844 34.647C13.1734 34.5579 13.2906 34.5063 13.4125 34.5063H30.5125C30.7703 34.5063 30.9812 34.7173 30.9812 34.9751Z" fill="white"/>
<path d="M27.7047 33.5688H16.2953C16.7969 32.3407 17.0547 31.0469 17.0547 29.725V28.4172H26.9453V29.725C26.9453 31.0469 27.2031 32.3407 27.7047 33.5688Z" fill="white"/>
<path d="M1.25781 22.6094H42.7422V27.4797H1.25781V22.6094Z" fill="white"/>
<path d="M1.25781 0.990723H42.7422V21.672H1.25781V0.990723Z" fill="#E9E9E9"/>
</svg>
