<svg width="28" height="46" viewBox="0 0 28 46" fill="none" xmlns="http://www.w3.org/2000/svg">
<path d="M26.8905 0.728027H0.696777C0.438965 0.728027 0.228027 0.938965 0.228027 1.19678V43.2108C0.228027 43.4733 0.438965 43.6796 0.696777 43.6796H1.23584L1.6249 45.5358C1.67178 45.7515 1.86397 45.9061 2.08428 45.9061H5.13115C5.35615 45.9061 5.54365 45.7515 5.59053 45.5358L5.97959 43.6796H22.0202L22.4093 45.5358C22.4562 45.7515 22.6437 45.9061 22.8687 45.9061H25.9155C26.1358 45.9061 26.328 45.7515 26.3749 45.5358L26.764 43.6796H26.8905C27.1483 43.6796 27.3593 43.4733 27.3593 43.2108V1.19678C27.3593 0.938965 27.1483 0.728027 26.8905 0.728027Z" fill="#A9B1C4"/>
<path d="M26.8905 0.728027H0.696777C0.438965 0.728027 0.228027 0.938965 0.228027 1.19678V43.2108C0.228027 43.4733 0.438965 43.6796 0.696777 43.6796H1.23584L1.6249 45.5358C1.67178 45.7515 1.86397 45.9061 2.08428 45.9061H5.13115C5.35615 45.9061 5.54365 45.7515 5.59053 45.5358L5.97959 43.6796H22.0202L22.4093 45.5358C22.4562 45.7515 22.6437 45.9061 22.8687 45.9061H25.9155C26.1358 45.9061 26.328 45.7515 26.3749 45.5358L26.764 43.6796H26.8905C27.1483 43.6796 27.3593 43.4733 27.3593 43.2108V1.19678C27.3593 0.938965 27.1483 0.728027 26.8905 0.728027ZM4.75147 44.9686H2.46396L2.19678 43.6796H5.02334L4.75147 44.9686ZM25.5358 44.9686H23.2483L22.9765 43.6796H25.803L25.5358 44.9686ZM26.4218 42.7421H1.16553V1.66553H26.4218V42.7421Z" fill="#A9B1C4"/>
<path d="M25.8031 43.6797L25.5359 44.9688H23.2484L22.9766 43.6797H25.8031Z" fill="white"/>
<path d="M5.02334 43.6797L4.75147 44.9688H2.46396L2.19678 43.6797H5.02334Z" fill="white"/>
<path d="M1.16553 1.66553V42.7421H26.4218V1.66553H1.16553ZM13.9999 41.6874C12.4483 41.6874 11.1874 40.4265 11.1874 38.8749C11.1874 37.3233 12.4483 36.0624 13.9999 36.0624C15.5515 36.0624 16.8124 37.3233 16.8124 38.8749C16.8124 40.4265 15.5515 41.6874 13.9999 41.6874ZM24.6265 34.8905C24.6265 35.1483 24.4155 35.3593 24.1577 35.3593H3.42959C3.17178 35.3593 2.96084 35.1483 2.96084 34.8905V3.07178C2.96084 2.81396 3.17178 2.60303 3.42959 2.60303H24.1577C24.4155 2.60303 24.6265 2.81396 24.6265 3.07178V34.8905Z" fill="#E9E9E9"/>
<path d="M24.1578 2.60303H3.42969C3.17187 2.60303 2.96094 2.81396 2.96094 3.07178V34.8905C2.96094 35.1483 3.17187 35.3593 3.42969 35.3593H24.1578C24.4156 35.3593 24.6266 35.1483 24.6266 34.8905V3.07178C24.6266 2.81396 24.4156 2.60303 24.1578 2.60303ZM23.6891 34.4218H3.89844V3.54053H23.6891V34.4218Z" fill="#A9B1C4"/>
<path d="M3.89844 3.54053V34.4218H23.6891V3.54053H3.89844ZM20.4031 31.839C20.2016 32.3968 19.7656 32.828 19.2078 33.0343C17.4781 33.6671 15.725 33.9905 14 33.9905C12.275 33.9905 10.5266 33.6671 8.79219 33.0343C8.23906 32.8327 7.80312 32.3968 7.60156 31.839C6.32187 28.3468 6.31719 24.9483 7.59219 21.4515C7.79375 20.8843 8.23906 20.4483 8.81094 20.2468C12.4437 18.9718 15.9359 18.9577 19.2266 20.214C19.7656 20.4202 20.1922 20.8515 20.3937 21.3999C21.6828 24.9108 21.6875 28.328 20.4031 31.839ZM20.4031 16.5952C20.2016 17.153 19.7656 17.5843 19.2078 17.7905C17.4781 18.4233 15.725 18.7468 14 18.7468C12.275 18.7468 10.5266 18.4233 8.79219 17.7905C8.23906 17.589 7.80312 17.153 7.60156 16.5952C6.32187 13.0983 6.31719 9.6999 7.59219 6.20771C7.79375 5.64053 8.23906 5.20459 8.81094 5.00303C12.4437 3.72803 15.9359 3.71396 19.2266 4.97021C19.7656 5.17178 20.1922 5.60771 20.3937 6.15615C21.6828 9.66709 21.6875 13.0843 20.4031 16.5952Z" fill="white"/>
<path d="M14 36.0625C12.4484 36.0625 11.1875 37.3234 11.1875 38.875C11.1875 40.4266 12.4484 41.6875 14 41.6875C15.5516 41.6875 16.8125 40.4266 16.8125 38.875C16.8125 37.3234 15.5516 36.0625 14 36.0625ZM14 40.75C12.9641 40.75 12.125 39.9109 12.125 38.875C12.125 37.8391 12.9641 37 14 37C15.0359 37 15.875 37.8391 15.875 38.875C15.875 39.9109 15.0359 40.75 14 40.75Z" fill="#A9B1C4"/>
<path d="M14 40.75C15.0355 40.75 15.875 39.9105 15.875 38.875C15.875 37.8395 15.0355 37 14 37C12.9645 37 12.125 37.8395 12.125 38.875C12.125 39.9105 12.9645 40.75 14 40.75Z" fill="white"/>
<path d="M20.3936 21.3998C20.192 20.8514 19.7654 20.4202 19.2264 20.2139C15.9357 18.9576 12.4436 18.9717 8.81075 20.2467C8.23887 20.4483 7.79356 20.8842 7.592 21.4514C6.317 24.9483 6.32169 28.3467 7.60137 31.8389C7.80294 32.3967 8.23887 32.8327 8.792 33.0342C10.5264 33.667 12.2748 33.9905 13.9998 33.9905C15.7248 33.9905 17.4779 33.667 19.2076 33.0342C19.7654 32.828 20.2014 32.3967 20.4029 31.8389C21.6873 28.328 21.6826 24.9108 20.3936 21.3998ZM19.5217 31.5155C19.4139 31.8155 19.1795 32.0452 18.8842 32.153C15.6311 33.3436 12.3686 33.3436 9.11544 32.153C8.82012 32.0452 8.59044 31.8155 8.47794 31.5155C7.28262 28.2389 7.27794 25.0514 8.47325 21.7702C8.58106 21.4702 8.81543 21.2405 9.12481 21.1327C10.8545 20.5233 12.5654 20.2139 14.2014 20.2139C15.7904 20.2139 17.3701 20.5092 18.8936 21.0858C19.1795 21.1983 19.4045 21.428 19.5123 21.7233C20.7264 25.0186 20.7264 28.2202 19.5217 31.5155Z" fill="#A9B1C4"/>
<path d="M19.5123 21.7232C19.4045 21.4279 19.1795 21.1982 18.8936 21.0857C17.3701 20.5092 15.7904 20.2139 14.2014 20.2139C12.5654 20.2139 10.8545 20.5232 9.12481 21.1326C8.81543 21.2404 8.58106 21.4701 8.47325 21.7701C7.27793 25.0514 7.28262 28.2389 8.47793 31.5155C8.59043 31.8155 8.82012 32.0451 9.11543 32.153C12.3686 33.3436 15.6311 33.3436 18.8842 32.153C19.1795 32.0451 19.4139 31.8155 19.5217 31.5155C20.7264 28.2201 20.7264 25.0186 19.5123 21.7232ZM19.4889 27.967C19.4842 27.9811 19.4889 27.9951 19.4842 28.0092C19.2498 28.9608 18.7623 29.842 18.0732 30.5545C18.0639 30.5639 18.0545 30.5686 18.0451 30.5779C18.017 30.6061 17.9842 30.6295 17.9467 30.6483C17.9279 30.6576 17.9045 30.667 17.8857 30.6764C17.867 30.6858 17.8529 30.6951 17.8342 30.6998C17.7967 30.7092 17.7592 30.7139 17.7264 30.7139C17.6654 30.7139 17.6092 30.6998 17.5529 30.6764C17.5389 30.6717 17.5248 30.6623 17.5107 30.6529C17.4732 30.6342 17.4451 30.6154 17.4123 30.5873C17.3982 30.5733 17.3842 30.5592 17.3701 30.5404C17.3467 30.517 17.3279 30.4889 17.3139 30.4608C17.3045 30.4373 17.2951 30.4139 17.2857 30.3904C17.2811 30.3764 17.2717 30.367 17.267 30.3529C16.9201 28.8717 15.6873 28.5389 15.092 28.4592C15.7529 29.1764 16.3061 30.3154 15.8701 31.7592C15.8607 31.778 15.8514 31.7967 15.842 31.8155C15.8326 31.8342 15.8279 31.8483 15.8186 31.8623C15.7951 31.9045 15.7623 31.9373 15.7295 31.9701C15.7201 31.9748 15.7154 31.9842 15.7107 31.9889C15.6639 32.0264 15.6123 32.0545 15.5514 32.0686V32.0733C15.0498 32.2186 14.5295 32.2889 13.9998 32.2889C13.5357 32.2889 13.0717 32.2326 12.6217 32.1201C12.6076 32.1154 12.6029 32.1061 12.5889 32.1061C12.5607 32.0967 12.5326 32.078 12.5045 32.0639C12.4764 32.0451 12.4482 32.0311 12.4248 32.0076C12.4154 31.9983 12.4014 31.9983 12.392 31.9842C12.3826 31.9748 12.3779 31.9561 12.3639 31.942C12.3498 31.9186 12.3311 31.8951 12.3217 31.867C12.3076 31.8389 12.2936 31.8108 12.2889 31.778C12.2795 31.7498 12.2748 31.7264 12.2748 31.6983C12.2701 31.6608 12.2748 31.6326 12.2795 31.5951V31.5483C12.2842 31.5389 12.2936 31.5295 12.2982 31.5155C12.3076 31.4873 12.3217 31.4592 12.3404 31.4311C12.3545 31.403 12.3732 31.3795 12.392 31.3561C12.4014 31.3467 12.4061 31.3326 12.4154 31.3233C13.5123 30.292 13.1936 29.0451 12.9639 28.4873C12.6732 29.4201 11.9654 30.4701 10.4982 30.817C10.4607 30.8217 10.4232 30.8264 10.3904 30.8264C10.3295 30.8264 10.2732 30.8123 10.217 30.7936C10.2123 30.7889 10.2029 30.7842 10.1982 30.7795C10.1561 30.7608 10.1139 30.7373 10.0764 30.7045C10.0717 30.6998 10.067 30.6998 10.0623 30.6951C9.34981 30.0014 8.8295 29.1295 8.56231 28.1826C8.55762 28.1686 8.56231 28.1592 8.55762 28.1498C8.54825 28.1123 8.54825 28.0795 8.54825 28.042C8.55293 28.0139 8.55293 27.9904 8.55762 27.9623C8.56231 27.9483 8.55762 27.9342 8.56231 27.9201C8.567 27.9014 8.58106 27.8873 8.59043 27.8686C8.59981 27.8451 8.61387 27.817 8.62793 27.7983C8.64668 27.7701 8.66543 27.742 8.68887 27.7233C8.71231 27.7045 8.73106 27.6858 8.7545 27.6717C8.78262 27.6529 8.81075 27.6389 8.84356 27.6248C8.85762 27.6201 8.867 27.6061 8.88575 27.6014H8.91856C8.95137 27.592 8.98418 27.592 9.017 27.592C9.04981 27.592 9.07793 27.5967 9.11075 27.6014C9.12481 27.6061 9.13418 27.6014 9.14356 27.6061C10.6014 28.0467 11.5201 27.1279 11.8811 26.6545C11.6232 26.7154 11.3467 26.7576 11.0514 26.7576C10.2639 26.7576 9.38262 26.4951 8.62793 25.6889C8.61387 25.6795 8.60918 25.6608 8.59981 25.6467C8.58106 25.6233 8.567 25.5998 8.55293 25.5717C8.53887 25.5436 8.5295 25.5154 8.52012 25.4826C8.51543 25.4545 8.51075 25.4311 8.50606 25.4029C8.50606 25.3701 8.50606 25.3326 8.51075 25.2998C8.51543 25.2858 8.51075 25.2717 8.51543 25.2576C8.7545 24.3014 9.24668 23.4154 9.94043 22.6982C9.94512 22.6936 9.9545 22.6889 9.96387 22.6842C9.992 22.6561 10.0248 22.6373 10.0576 22.6139C10.0811 22.6045 10.0998 22.5951 10.1232 22.5857C10.1373 22.5811 10.1514 22.5717 10.1654 22.567C10.1889 22.5623 10.2076 22.567 10.2264 22.567C10.2545 22.5623 10.2779 22.5623 10.3014 22.5623C10.3389 22.567 10.3717 22.5717 10.4045 22.5811C10.4279 22.5857 10.4514 22.5951 10.4748 22.6092C10.5076 22.6232 10.5357 22.642 10.5639 22.6654C10.5732 22.6748 10.592 22.6795 10.6014 22.6889C10.6107 22.6982 10.6154 22.7076 10.6201 22.717C10.6436 22.7404 10.6623 22.7686 10.6764 22.7967C10.6904 22.8248 10.7045 22.8529 10.7139 22.8811C10.7186 22.8951 10.7279 22.9045 10.7326 22.9139C11.0795 24.3951 12.317 24.7326 12.9076 24.8076C12.2467 24.0904 11.6936 22.9561 12.1295 21.5076C12.1342 21.4889 12.1482 21.4795 12.1529 21.4607C12.167 21.4373 12.1811 21.4139 12.1951 21.3904C12.2139 21.3576 12.2326 21.3342 12.2607 21.3107C12.2795 21.292 12.2936 21.2779 12.317 21.2639C12.3451 21.2451 12.3779 21.2264 12.4154 21.2123C12.4248 21.2076 12.4342 21.1982 12.4482 21.1936C13.3904 20.9217 14.4217 20.9076 15.3779 21.1467C15.392 21.1514 15.3967 21.1607 15.4107 21.1654C15.4436 21.1748 15.4717 21.1889 15.4998 21.2076C15.5279 21.2217 15.5514 21.2357 15.5701 21.2592C15.5842 21.2686 15.5982 21.2686 15.6076 21.2826C15.617 21.292 15.6217 21.3107 15.6311 21.3248C15.6498 21.3482 15.6686 21.3717 15.6826 21.3998C15.692 21.4279 15.7061 21.4607 15.7107 21.4889C15.7201 21.517 15.7248 21.5404 15.7248 21.5686C15.7295 21.6061 15.7248 21.6389 15.7201 21.6717V21.7186C15.7154 21.7279 15.7061 21.7373 15.7014 21.7514C15.692 21.7795 15.6779 21.8076 15.6592 21.8357C15.6451 21.8639 15.6264 21.8873 15.6076 21.9107C15.5982 21.9201 15.5936 21.9342 15.5842 21.9436C14.4873 22.9748 14.8061 24.2217 15.0311 24.7795C15.3264 23.8467 16.0342 22.7967 17.5014 22.4498H17.5576C17.5857 22.4451 17.6092 22.4451 17.6373 22.4498C17.6748 22.4498 17.7076 22.4545 17.7404 22.4639C17.7639 22.4732 17.7826 22.4826 17.8061 22.492C17.8436 22.5061 17.8717 22.5295 17.9045 22.5529C17.9139 22.5623 17.9232 22.5623 17.9326 22.5717C17.9514 22.5904 17.9654 22.6092 17.9795 22.6232C17.9842 22.6279 17.9889 22.6326 17.9889 22.6326C18.6779 23.317 19.1795 24.1608 19.4373 25.0842C19.442 25.0983 19.4373 25.1076 19.442 25.117C19.4467 25.1545 19.4514 25.1873 19.4514 25.2248C19.4467 25.2529 19.4467 25.2764 19.442 25.3045C19.4373 25.3186 19.442 25.3326 19.4373 25.3467C19.4326 25.3654 19.4186 25.3795 19.4092 25.3983C19.3998 25.4217 19.3904 25.4451 19.3717 25.4686C19.3529 25.5014 19.3342 25.5248 19.3061 25.5483C19.2873 25.567 19.2686 25.5811 19.2498 25.5951C19.2217 25.6139 19.1889 25.6326 19.1514 25.642C19.142 25.6514 19.1279 25.6608 19.1139 25.6654C19.0998 25.6701 19.0857 25.6654 19.0717 25.6701C19.0529 25.6748 19.0342 25.6748 19.0201 25.6795H18.9873C18.9498 25.6795 18.917 25.6701 18.8795 25.6654C18.8701 25.6608 18.8607 25.6654 18.8561 25.6608C17.4123 25.2248 16.4936 26.1248 16.1232 26.5983C17.0795 26.3873 18.3404 26.4764 19.3717 27.5779C19.3857 27.5873 19.3904 27.6061 19.3998 27.6201C19.4186 27.6436 19.4326 27.667 19.4467 27.6951C19.4607 27.7233 19.4701 27.7561 19.4795 27.7842C19.4842 27.8123 19.4889 27.8358 19.4936 27.8639C19.4936 27.8967 19.4936 27.9342 19.4889 27.967Z" fill="white"/>
<path d="M19.4798 27.7844C19.4704 27.7563 19.461 27.7234 19.447 27.6953C19.4329 27.6672 19.4188 27.6438 19.4001 27.6203C19.3907 27.6063 19.386 27.5875 19.372 27.5781C18.3407 26.4766 17.0798 26.3875 16.1235 26.5984C16.4938 26.125 17.4126 25.225 18.8564 25.6609C18.861 25.6656 18.8704 25.6609 18.8798 25.6656C18.9173 25.6703 18.9501 25.6797 18.9876 25.6797H19.0204C19.0345 25.675 19.0532 25.675 19.072 25.6703C19.086 25.6656 19.1001 25.6703 19.1142 25.6656C19.1282 25.6609 19.1423 25.6516 19.1517 25.6422C19.1892 25.6328 19.222 25.6141 19.2501 25.5953C19.2688 25.5813 19.2876 25.5672 19.3063 25.5484C19.3345 25.525 19.3532 25.5016 19.372 25.4688C19.3907 25.4453 19.4001 25.4219 19.4095 25.3984C19.4189 25.3797 19.4329 25.3656 19.4376 25.3469C19.4423 25.3328 19.4376 25.3188 19.4423 25.3047C19.447 25.2766 19.447 25.2531 19.4517 25.225C19.4517 25.1875 19.447 25.1547 19.4423 25.1172C19.4376 25.1078 19.4423 25.0984 19.4376 25.0844C19.1798 24.1609 18.6782 23.3172 17.9892 22.6328C17.9892 22.6328 17.9845 22.6281 17.9798 22.6234C17.9657 22.6094 17.9517 22.5906 17.9329 22.5719C17.9235 22.5625 17.9142 22.5625 17.9048 22.5531C17.872 22.5297 17.8439 22.5063 17.8064 22.4922C17.7829 22.4828 17.7642 22.4734 17.7407 22.4641C17.7079 22.4547 17.6751 22.45 17.6376 22.45C17.6095 22.4453 17.586 22.4453 17.5579 22.45H17.5017C16.0345 22.7969 15.3267 23.8469 15.0313 24.7797C14.8063 24.2219 14.4876 22.975 15.5845 21.9438C15.5938 21.9344 15.5985 21.9203 15.6079 21.9109C15.6267 21.8875 15.6454 21.8641 15.6595 21.8359C15.6782 21.8078 15.6923 21.7797 15.7017 21.7516C15.7063 21.7375 15.7157 21.7281 15.7204 21.7188V21.6719C15.7251 21.6391 15.7298 21.6063 15.7251 21.5688C15.7251 21.5406 15.7204 21.5172 15.711 21.4891C15.7064 21.4609 15.6923 21.4281 15.6829 21.4C15.6688 21.3719 15.6501 21.3484 15.6314 21.325C15.622 21.3109 15.6173 21.2922 15.6079 21.2828C15.5985 21.2687 15.5845 21.2687 15.5704 21.2594C15.5517 21.2359 15.5282 21.2219 15.5001 21.2078C15.472 21.1891 15.4439 21.175 15.411 21.1656C15.397 21.1609 15.3923 21.1516 15.3782 21.1469C14.422 20.9078 13.3907 20.9219 12.4485 21.1937C12.4345 21.1984 12.4251 21.2078 12.4157 21.2125C12.3782 21.2266 12.3454 21.2453 12.3173 21.2641C12.2938 21.2781 12.2798 21.2922 12.261 21.3109C12.2329 21.3344 12.2142 21.3578 12.1954 21.3906C12.1813 21.4141 12.1673 21.4375 12.1532 21.4609C12.1485 21.4797 12.1345 21.4891 12.1298 21.5078C11.6938 22.9563 12.247 24.0906 12.9079 24.8078C12.3173 24.7328 11.0798 24.3953 10.7329 22.9141C10.7282 22.9047 10.7188 22.8953 10.7142 22.8813C10.7048 22.8531 10.6907 22.825 10.6767 22.7969C10.6626 22.7688 10.6438 22.7406 10.6204 22.7172C10.6157 22.7078 10.611 22.6984 10.6017 22.6891C10.5923 22.6797 10.5735 22.675 10.5642 22.6656C10.536 22.6422 10.5079 22.6234 10.4751 22.6094C10.4517 22.5953 10.4282 22.5859 10.4048 22.5813C10.372 22.5719 10.3392 22.5672 10.3017 22.5625C10.2782 22.5625 10.2548 22.5625 10.2267 22.5672C10.2079 22.5672 10.1892 22.5625 10.1657 22.5672C10.1517 22.5719 10.1376 22.5813 10.1235 22.5859C10.1001 22.5953 10.0813 22.6047 10.0579 22.6141C10.0251 22.6375 9.99229 22.6563 9.96416 22.6844C9.95479 22.6891 9.94541 22.6938 9.94072 22.6984C9.24697 23.4156 8.75479 24.3016 8.51572 25.2578C8.51104 25.2719 8.51572 25.2859 8.51104 25.3C8.50635 25.3328 8.50635 25.3703 8.50635 25.4031C8.51104 25.4313 8.51572 25.4547 8.52041 25.4828C8.52979 25.5156 8.53916 25.5438 8.55322 25.5719C8.56729 25.6 8.58135 25.6234 8.6001 25.6469C8.60947 25.6609 8.61416 25.6797 8.62822 25.6891C9.38291 26.4953 10.2642 26.7578 11.0517 26.7578C11.347 26.7578 11.6235 26.7156 11.8813 26.6547C11.5204 27.1281 10.6017 28.0469 9.14385 27.6063C9.13447 27.6016 9.1251 27.6063 9.11104 27.6016C9.07822 27.5969 9.0501 27.5922 9.01729 27.5922C8.98447 27.5922 8.95166 27.5922 8.91885 27.6016H8.88604C8.86729 27.6063 8.85791 27.6203 8.84385 27.625C8.81104 27.6391 8.78291 27.6531 8.75479 27.6719C8.73135 27.6859 8.7126 27.7047 8.68916 27.7234C8.66572 27.7422 8.64697 27.7703 8.62822 27.7985C8.61416 27.8172 8.6001 27.8453 8.59072 27.8688C8.58135 27.8875 8.56729 27.9016 8.5626 27.9203C8.55791 27.9344 8.5626 27.9485 8.55791 27.9625C8.55322 27.9906 8.55322 28.0141 8.54854 28.0422C8.54854 28.0797 8.54854 28.1125 8.55791 28.15C8.5626 28.1594 8.55791 28.1688 8.5626 28.1828C8.82979 29.1297 9.3501 30.0016 10.0626 30.6953C10.0673 30.7 10.072 30.7 10.0767 30.7047C10.1142 30.7375 10.1563 30.761 10.1985 30.7797C10.2032 30.7844 10.2126 30.7891 10.2173 30.7938C10.2735 30.8125 10.3298 30.8266 10.3907 30.8266C10.4235 30.8266 10.461 30.8219 10.4985 30.8172C11.9657 30.4703 12.6735 29.4203 12.9642 28.4875C13.1938 29.0453 13.5126 30.2922 12.4157 31.3235C12.4063 31.3328 12.4017 31.3469 12.3923 31.3563C12.3735 31.3797 12.3548 31.4031 12.3407 31.4313C12.322 31.4594 12.3079 31.4875 12.2985 31.5156C12.2938 31.5297 12.2845 31.5391 12.2798 31.5485V31.5953C12.2751 31.6328 12.2704 31.661 12.2751 31.6985C12.2751 31.7266 12.2798 31.75 12.2892 31.7781C12.2938 31.811 12.3079 31.8391 12.322 31.8672C12.3313 31.8953 12.3501 31.9188 12.3642 31.9422C12.3782 31.9563 12.3829 31.975 12.3923 31.9844C12.4017 31.9985 12.4157 31.9985 12.4251 32.0078C12.4485 32.0313 12.4767 32.0453 12.5048 32.0641C12.5329 32.0781 12.561 32.0969 12.5892 32.1063C12.6032 32.1063 12.6079 32.1156 12.622 32.1203C13.072 32.2328 13.536 32.2891 14.0001 32.2891C14.5298 32.2891 15.0501 32.2188 15.5517 32.0735V32.0688C15.6126 32.0547 15.6642 32.0266 15.711 31.9891C15.7157 31.9844 15.7204 31.975 15.7298 31.9703C15.7626 31.9375 15.7954 31.9047 15.8188 31.8625C15.8282 31.8485 15.8329 31.8344 15.8423 31.8156C15.8517 31.7969 15.861 31.7781 15.8704 31.7594C16.3063 30.3156 15.7532 29.1766 15.0923 28.4594C15.6876 28.5391 16.9204 28.8719 17.2673 30.3531C17.272 30.3672 17.2814 30.3766 17.286 30.3906C17.2954 30.4141 17.3048 30.4375 17.3142 30.461C17.3282 30.4891 17.347 30.5172 17.3704 30.5406C17.3845 30.5594 17.3985 30.5735 17.4126 30.5875C17.4454 30.6156 17.4735 30.6344 17.511 30.6531C17.5251 30.6625 17.5392 30.6719 17.5532 30.6766C17.6095 30.7 17.6657 30.7141 17.7267 30.7141C17.7595 30.7141 17.797 30.7094 17.8345 30.7C17.8532 30.6953 17.8673 30.686 17.886 30.6766C17.9048 30.6672 17.9282 30.6578 17.947 30.6485C17.9845 30.6297 18.0173 30.6063 18.0454 30.5781C18.0548 30.5688 18.0642 30.5641 18.0735 30.5547C18.7626 29.8422 19.2501 28.961 19.4845 28.0094C19.4892 27.9953 19.4845 27.9813 19.4892 27.9672C19.4938 27.9344 19.4939 27.8969 19.4939 27.8641C19.4892 27.836 19.4845 27.8125 19.4798 27.7844ZM9.50479 25.2344C9.64541 24.7797 9.85166 24.3484 10.1235 23.9547C10.6017 24.8781 11.4126 25.3703 12.1485 25.6C11.6329 25.8156 10.5032 26.1156 9.50479 25.2344ZM10.5407 29.8281C10.2126 29.4719 9.94541 29.0781 9.73916 28.6469C9.79072 28.6516 9.84229 28.661 9.89385 28.661C10.8595 28.661 11.6376 28.2203 12.1813 27.7234C12.1063 28.2766 11.8017 29.4016 10.5407 29.8281ZM12.9642 22.0422C13.4282 21.9344 13.9063 21.9016 14.3798 21.9391C13.822 22.8156 13.7985 23.7578 13.9673 24.5125C13.522 24.175 12.7017 23.3453 12.9642 22.0422ZM12.936 26.6313C12.936 26.0453 13.4142 25.5719 14.0001 25.5719C14.586 25.5719 15.0642 26.0453 15.0642 26.6313C15.0642 27.2219 14.586 27.7 14.0001 27.7C13.4142 27.7 12.936 27.2219 12.936 26.6313ZM15.036 31.225C14.572 31.3328 14.0938 31.3656 13.6204 31.3281C14.1782 30.4516 14.2017 29.5094 14.0329 28.7547C14.4782 29.0922 15.2985 29.9219 15.036 31.225ZM17.4595 23.4438C17.7829 23.7953 18.0548 24.1891 18.2564 24.6156C17.2204 24.5688 16.3907 25.0188 15.8235 25.5438C15.8985 24.9859 16.2126 23.8656 17.4595 23.4438ZM17.8767 29.3125C17.3985 28.3891 16.5876 27.8969 15.8517 27.6672C16.3673 27.4516 17.497 27.1516 18.4954 28.0328C18.3548 28.4875 18.1485 28.9188 17.8767 29.3125Z" fill="#A9B1C4"/>
<path d="M15.0642 26.6311C15.0642 27.2218 14.586 27.6999 14.0001 27.6999C13.4142 27.6999 12.936 27.2218 12.936 26.6311C12.936 26.0452 13.4142 25.5718 14.0001 25.5718C14.586 25.5718 15.0642 26.0452 15.0642 26.6311Z" fill="white"/>
<path d="M12.1481 25.5999C11.6325 25.8155 10.5028 26.1155 9.50439 25.2343C9.64502 24.7796 9.85127 24.3483 10.1231 23.9546C10.6013 24.878 11.4122 25.3702 12.1481 25.5999Z" fill="#E9E9E9"/>
<path d="M12.181 27.7234C12.106 28.2765 11.8013 29.4015 10.5403 29.8281C10.2122 29.4718 9.94502 29.0781 9.73877 28.6468C9.79033 28.6515 9.8419 28.6609 9.89346 28.6609C10.8591 28.6609 11.6372 28.2203 12.181 27.7234Z" fill="#E9E9E9"/>
<path d="M15.0358 31.2249C14.5717 31.3328 14.0936 31.3656 13.6201 31.3281C14.1779 30.4515 14.2014 29.5093 14.0326 28.7546C14.4779 29.0921 15.2983 29.9218 15.0358 31.2249Z" fill="#E9E9E9"/>
<path d="M18.4948 28.0327C18.3542 28.4874 18.148 28.9187 17.8761 29.3124C17.3979 28.389 16.587 27.8968 15.8511 27.6671C16.3667 27.4515 17.4964 27.1515 18.4948 28.0327Z" fill="#E9E9E9"/>
<path d="M18.2561 24.6155C17.2201 24.5686 16.3904 25.0186 15.8232 25.5436C15.8982 24.9858 16.2123 23.8655 17.4592 23.4436C17.7826 23.7952 18.0545 24.1889 18.2561 24.6155Z" fill="#E9E9E9"/>
<path d="M13.9669 24.5124C13.5216 24.1749 12.7013 23.3452 12.9638 22.0421C13.4279 21.9343 13.906 21.9015 14.3794 21.939C13.8216 22.8156 13.7982 23.7577 13.9669 24.5124Z" fill="#E9E9E9"/>
<path d="M20.3936 6.15619C20.192 5.60775 19.7654 5.17181 19.2264 4.97025C15.9357 3.714 12.4436 3.72806 8.81075 5.00306C8.23887 5.20462 7.79356 5.64056 7.592 6.20775C6.317 9.69993 6.32169 13.0984 7.60137 16.5952C7.80294 17.1531 8.23887 17.589 8.792 17.7906C10.5264 18.4234 12.2748 18.7468 13.9998 18.7468C15.7248 18.7468 17.4779 18.4234 19.2076 17.7906C19.7654 17.5843 20.2014 17.1531 20.4029 16.5952C21.6873 13.0843 21.6826 9.66712 20.3936 6.15619ZM19.5217 16.2718C19.4139 16.5718 19.1842 16.8015 18.8842 16.9093C15.6311 18.0999 12.3732 18.0999 9.11544 16.9093C8.82012 16.8015 8.59044 16.5718 8.47794 16.2718C7.28262 12.9952 7.27794 9.80775 8.47325 6.5265C8.58106 6.2265 8.81543 5.99681 9.12481 5.889C10.8545 5.27962 12.5654 4.97025 14.2014 4.97025C15.7951 4.97025 17.3701 5.26556 18.8936 5.84681C19.1795 5.95462 19.4045 6.18431 19.5123 6.47962C20.7264 9.77494 20.7264 12.9765 19.5217 16.2718Z" fill="#A9B1C4"/>
<path d="M19.5123 6.47959C19.4045 6.18428 19.1795 5.95459 18.8936 5.84678C17.3701 5.26553 15.7951 4.97021 14.2014 4.97021C12.5654 4.97021 10.8545 5.27959 9.12481 5.88896C8.81543 5.99678 8.58106 6.22647 8.47325 6.52647C7.27793 9.80772 7.28262 12.9952 8.47793 16.2718C8.59043 16.5718 8.82012 16.8015 9.11543 16.9093C12.3732 18.0999 15.6311 18.0999 18.8842 16.9093C19.1842 16.8015 19.4139 16.5718 19.5217 16.2718C20.7264 12.9765 20.7264 9.7749 19.5123 6.47959ZM19.4889 12.7233C19.4842 12.7374 19.4889 12.7515 19.4842 12.7655C19.2498 13.7171 18.7623 14.5937 18.0732 15.3062C18.0639 15.3155 18.0545 15.3202 18.0451 15.3296C18.017 15.3577 17.9842 15.3812 17.9514 15.3999C17.9279 15.414 17.9045 15.4233 17.8811 15.4327C17.867 15.4374 17.8529 15.4515 17.8342 15.4562C17.7967 15.4608 17.7592 15.4655 17.7264 15.4655C17.6654 15.4655 17.6092 15.4515 17.5529 15.4327C17.5389 15.4233 17.5201 15.414 17.5061 15.4046C17.4732 15.3858 17.4404 15.3671 17.417 15.3437C17.3982 15.3296 17.3842 15.3108 17.3701 15.2921C17.3467 15.2687 17.3279 15.2405 17.3139 15.2124C17.3045 15.189 17.2951 15.1655 17.2857 15.1421C17.2811 15.128 17.2717 15.1187 17.267 15.1046C16.9248 13.6374 15.6826 13.2905 15.092 13.2108C15.7529 13.928 16.3061 15.0671 15.8701 16.5108C15.8607 16.5343 15.8514 16.553 15.842 16.5718C15.8326 16.5858 15.8279 16.6046 15.8186 16.6187C15.7951 16.6562 15.7623 16.6937 15.7295 16.7218C15.7201 16.7312 15.7154 16.7358 15.7107 16.7452C15.6639 16.778 15.6123 16.8062 15.5514 16.8249C15.0498 16.9702 14.5248 17.0452 13.9998 17.0452C13.5357 17.0452 13.0717 16.9843 12.6217 16.8718C12.6076 16.8718 12.6029 16.8624 12.5889 16.8577C12.5607 16.8483 12.5326 16.8343 12.5045 16.8155C12.4764 16.8015 12.4482 16.7827 12.4248 16.764C12.4154 16.7546 12.4014 16.7499 12.392 16.7405C12.3826 16.7265 12.3779 16.7077 12.3639 16.6937C12.3498 16.6702 12.3311 16.6468 12.3217 16.6187C12.3076 16.5905 12.2936 16.5624 12.2889 16.5296C12.2795 16.5062 12.2748 16.478 12.2748 16.4499C12.2701 16.4171 12.2748 16.3843 12.2795 16.3515V16.3046C12.2842 16.2905 12.2936 16.2812 12.2982 16.2718C12.3076 16.239 12.3217 16.2108 12.3404 16.1827C12.3545 16.1546 12.3732 16.1312 12.392 16.1077C12.4014 16.0983 12.4061 16.0843 12.4154 16.0796C13.5123 15.0437 13.1936 13.7968 12.9639 13.2437C12.6732 14.1765 11.9654 15.2218 10.4982 15.5687C10.4607 15.578 10.4232 15.5827 10.3904 15.5827C10.3295 15.5827 10.2732 15.5687 10.2217 15.5452C10.2123 15.5452 10.2029 15.5358 10.1936 15.5312C10.1514 15.5124 10.1139 15.489 10.0764 15.4562C10.0717 15.4562 10.067 15.4515 10.0623 15.4468C9.34981 14.753 8.8295 13.8858 8.56231 12.9343C8.55762 12.9249 8.56231 12.9155 8.55762 12.9015C8.54825 12.8687 8.54825 12.8312 8.54825 12.7937C8.54825 12.7702 8.55293 12.7421 8.55762 12.7187C8.56231 12.6999 8.55762 12.6858 8.56231 12.6718C8.567 12.653 8.58106 12.639 8.58575 12.6249C8.59981 12.5968 8.61387 12.5733 8.62793 12.5499C8.64668 12.5218 8.66543 12.4983 8.68887 12.4749C8.70762 12.4562 8.73106 12.4421 8.7545 12.4233C8.78262 12.4046 8.81075 12.3905 8.84356 12.3765C8.85762 12.3718 8.867 12.3624 8.88575 12.3577C8.89512 12.353 8.90918 12.3577 8.92324 12.353C8.95137 12.3483 8.9795 12.3483 9.01231 12.3483C9.04512 12.3483 9.08262 12.3483 9.11543 12.3577H9.14356C10.6154 12.7983 11.5295 11.8796 11.8857 11.4108C11.6232 11.4718 11.3514 11.514 11.0514 11.514C10.2639 11.514 9.38262 11.2515 8.62793 10.4452C8.61387 10.4312 8.60918 10.4171 8.59981 10.403C8.58106 10.3796 8.567 10.3515 8.55293 10.3233C8.53887 10.2952 8.5295 10.2671 8.52012 10.239C8.51543 10.2108 8.51075 10.1827 8.50606 10.1546C8.50606 10.1218 8.50606 10.089 8.51075 10.0515C8.51543 10.0374 8.51075 10.0233 8.51543 10.0093C8.7545 9.05303 9.24668 8.16709 9.94043 7.45459C9.94512 7.44522 9.9545 7.44522 9.96387 7.43584C9.992 7.4124 10.0248 7.38897 10.0576 7.37022C10.0811 7.36084 10.0998 7.34678 10.1232 7.34209C10.1373 7.3374 10.1514 7.32334 10.1654 7.31865C10.1889 7.31397 10.2076 7.31865 10.2264 7.31865C10.2545 7.31397 10.2779 7.31397 10.3014 7.31865C10.3389 7.31865 10.3717 7.32334 10.4045 7.33272L10.4748 7.36084C10.5076 7.3749 10.5357 7.39365 10.5639 7.41709C10.5779 7.42647 10.592 7.43115 10.6014 7.44053C10.6107 7.4499 10.6154 7.46397 10.6201 7.47334C10.6436 7.49678 10.6623 7.52022 10.6764 7.55303C10.6904 7.58115 10.7045 7.60459 10.7139 7.6374C10.7186 7.64678 10.7279 7.65615 10.7326 7.67022C11.0795 9.14678 12.3123 9.47959 12.9076 9.55928C12.2467 8.84209 11.6936 7.70772 12.1295 6.26397C12.1342 6.24522 12.1482 6.23115 12.1529 6.21709C12.167 6.18897 12.1811 6.16553 12.1951 6.14209C12.2139 6.11397 12.2326 6.09053 12.2607 6.0624C12.2795 6.04834 12.2936 6.03428 12.317 6.02022C12.3451 5.99678 12.3779 5.98272 12.4154 5.96865C12.4248 5.96396 12.4342 5.95459 12.4482 5.9499C13.3904 5.67803 14.4217 5.65928 15.3779 5.90303C15.392 5.90303 15.3967 5.9124 15.4107 5.91709C15.4436 5.92647 15.4717 5.94522 15.5045 5.95928C15.5279 5.97803 15.5514 5.99209 15.5701 6.01084C15.5842 6.02022 15.5936 6.0249 15.6076 6.03428C15.617 6.04834 15.6217 6.06709 15.6311 6.08115C15.6498 6.10459 15.6686 6.12803 15.6826 6.15615C15.6967 6.18428 15.7061 6.2124 15.7107 6.24522C15.7201 6.26865 15.7248 6.29678 15.7248 6.3249C15.7295 6.35772 15.7248 6.39053 15.7201 6.42334V6.47022C15.7154 6.48428 15.7061 6.49365 15.7014 6.50772C15.692 6.53584 15.6779 6.56397 15.6592 6.59209C15.6451 6.61553 15.6264 6.64365 15.6076 6.66709C15.5982 6.67647 15.5936 6.69053 15.5842 6.69522C14.4873 7.73115 14.8061 8.97334 15.0311 9.53116C15.3264 8.59834 16.0342 7.55303 17.5014 7.20615C17.5201 7.20147 17.5389 7.20615 17.5529 7.20615C17.5857 7.20147 17.6139 7.20147 17.642 7.20147C17.6748 7.20615 17.7076 7.21084 17.7357 7.22022C17.7639 7.2249 17.7873 7.23428 17.8107 7.24834C17.8436 7.2624 17.8717 7.28115 17.9045 7.30459C17.9139 7.31397 17.9232 7.31865 17.9326 7.32803C17.9514 7.34209 17.9654 7.36084 17.9842 7.37959C17.9842 7.38428 17.9889 7.38428 17.9889 7.38897C18.6779 8.07334 19.1795 8.91709 19.4373 9.84053C19.442 9.84991 19.4373 9.85928 19.442 9.87334C19.4514 9.90616 19.4514 9.94365 19.4514 9.97647C19.4514 10.0046 19.4467 10.0327 19.442 10.0608C19.4373 10.0749 19.442 10.089 19.4373 10.103C19.4326 10.1218 19.4186 10.1358 19.4139 10.1499C19.3998 10.178 19.3904 10.2015 19.3717 10.2249C19.3529 10.253 19.3342 10.2765 19.3107 10.2999C19.2873 10.3187 19.2686 10.3374 19.2498 10.3515C19.217 10.3702 19.1889 10.3843 19.1561 10.3983C19.142 10.403 19.1326 10.4124 19.1139 10.4171C19.0998 10.4218 19.0811 10.4218 19.067 10.4265C19.0482 10.4265 19.0342 10.4312 19.0201 10.4312C19.0107 10.4312 18.9967 10.4358 18.9873 10.4358C18.9498 10.4358 18.9123 10.4265 18.8748 10.4171H18.8561C17.3982 9.97647 16.4842 10.8812 16.1232 11.3546C17.0748 11.139 18.3357 11.228 19.3717 12.3296C19.3857 12.3437 19.3904 12.3577 19.3998 12.3718C19.4186 12.3952 19.4326 12.4233 19.4467 12.4515C19.4607 12.4796 19.4701 12.5077 19.4795 12.5405C19.4842 12.564 19.4889 12.5921 19.4936 12.6155C19.4936 12.653 19.4936 12.6858 19.4889 12.7233Z" fill="white"/>
<path d="M19.4798 12.5406C19.4704 12.5078 19.461 12.4797 19.447 12.4516C19.4329 12.4234 19.4188 12.3953 19.4001 12.3719C19.3907 12.3578 19.386 12.3438 19.372 12.3297C18.336 11.2281 17.0751 11.1391 16.1235 11.3547C16.4845 10.8813 17.3985 9.97656 18.8564 10.4172H18.8751C18.9126 10.4266 18.9501 10.4359 18.9876 10.4359C18.997 10.4359 19.011 10.4313 19.0204 10.4313C19.0345 10.4313 19.0485 10.4266 19.0673 10.4266C19.0813 10.4219 19.1001 10.4219 19.1142 10.4172C19.1329 10.4125 19.1423 10.4031 19.1564 10.3984C19.1892 10.3844 19.2173 10.3703 19.2501 10.3516C19.2688 10.3375 19.2876 10.3188 19.311 10.3C19.3345 10.2766 19.3532 10.2531 19.372 10.225C19.3907 10.2016 19.4001 10.1781 19.4142 10.15C19.4189 10.1359 19.4329 10.1219 19.4376 10.1031C19.4423 10.0891 19.4376 10.075 19.4423 10.0609C19.447 10.0328 19.4517 10.0047 19.4517 9.97656C19.4517 9.94375 19.4517 9.90625 19.4423 9.87344C19.4376 9.85938 19.4423 9.85 19.4376 9.84063C19.1798 8.91719 18.6782 8.07344 17.9892 7.38906C17.9892 7.38438 17.9845 7.38438 17.9845 7.37969C17.9657 7.36094 17.9517 7.34219 17.9329 7.32813C17.9235 7.31875 17.9142 7.31406 17.9048 7.30469C17.872 7.28125 17.8438 7.2625 17.811 7.24844C17.7876 7.23438 17.7642 7.225 17.736 7.22031C17.7079 7.21094 17.6751 7.20625 17.6423 7.20156C17.6142 7.20156 17.586 7.20156 17.5532 7.20625C17.5392 7.20625 17.5204 7.20156 17.5017 7.20625C16.0345 7.55313 15.3267 8.59844 15.0313 9.53125C14.8063 8.97344 14.4876 7.73125 15.5845 6.69531C15.5938 6.69063 15.5985 6.67656 15.6079 6.66719C15.6267 6.64375 15.6454 6.61563 15.6595 6.59219C15.6782 6.56406 15.6923 6.53594 15.7017 6.50781C15.7063 6.49375 15.7157 6.48438 15.7204 6.47031V6.42344C15.7251 6.39063 15.7298 6.35781 15.7251 6.325C15.7251 6.29688 15.7204 6.26875 15.711 6.24531C15.7064 6.2125 15.697 6.18438 15.6829 6.15625C15.6688 6.12813 15.6501 6.10469 15.6314 6.08125C15.622 6.06719 15.6173 6.04844 15.6079 6.03438C15.5938 6.025 15.5845 6.02031 15.5704 6.01094C15.5517 5.99219 15.5282 5.97813 15.5048 5.95938C15.472 5.94531 15.4439 5.92656 15.411 5.91719C15.397 5.9125 15.3923 5.90313 15.3782 5.90313C14.422 5.65938 13.3907 5.67813 12.4485 5.95C12.4345 5.95469 12.4251 5.96406 12.4157 5.96875C12.3782 5.98281 12.3454 5.99688 12.3173 6.02031C12.2938 6.03438 12.2798 6.04844 12.261 6.0625C12.2329 6.09063 12.2142 6.11406 12.1954 6.14219C12.1813 6.16563 12.1673 6.18906 12.1532 6.21719C12.1485 6.23125 12.1345 6.24531 12.1298 6.26406C11.6938 7.70781 12.247 8.84219 12.9079 9.55938C12.3126 9.47969 11.0798 9.14688 10.7329 7.67031C10.7282 7.65625 10.7188 7.64688 10.7142 7.6375C10.7048 7.60469 10.6907 7.58125 10.6767 7.55313C10.6626 7.52031 10.6438 7.49688 10.6204 7.47344C10.6157 7.46406 10.611 7.45 10.6017 7.44063C10.5923 7.43125 10.5782 7.42656 10.5642 7.41719C10.536 7.39375 10.5079 7.375 10.4751 7.36094C10.4517 7.35156 10.4282 7.34219 10.4048 7.33281C10.372 7.32344 10.3392 7.31875 10.3017 7.31875C10.2782 7.31406 10.2548 7.31406 10.2267 7.31875C10.2079 7.31875 10.1892 7.31406 10.1657 7.31875C10.1517 7.32344 10.1376 7.3375 10.1235 7.34219C10.1001 7.34688 10.0813 7.36094 10.0579 7.37031C10.0251 7.38906 9.99229 7.4125 9.96416 7.43594C9.95479 7.44531 9.94541 7.44531 9.94072 7.45469C9.24697 8.16719 8.75479 9.05313 8.51572 10.0094C8.51104 10.0234 8.51572 10.0375 8.51104 10.0516C8.50635 10.0891 8.50635 10.1219 8.50635 10.1547C8.51104 10.1828 8.51572 10.2109 8.52041 10.2391C8.52979 10.2672 8.53916 10.2953 8.55322 10.3234C8.56729 10.3516 8.58135 10.3797 8.6001 10.4031C8.60947 10.4172 8.61416 10.4313 8.62822 10.4453C9.38291 11.2516 10.2642 11.5141 11.0517 11.5141C11.3517 11.5141 11.6235 11.4719 11.886 11.4109C11.5298 11.8797 10.6157 12.7984 9.14385 12.3578H9.11572C9.08291 12.3484 9.04541 12.3484 9.0126 12.3484C8.97979 12.3484 8.95166 12.3484 8.92353 12.3531C8.90947 12.3578 8.89541 12.3531 8.88604 12.3578C8.86729 12.3625 8.85791 12.3719 8.84385 12.3766C8.81104 12.3906 8.78291 12.4047 8.75479 12.4234C8.73135 12.4422 8.70791 12.4563 8.68916 12.475C8.66572 12.4984 8.64697 12.5219 8.62822 12.55C8.61416 12.5734 8.6001 12.5969 8.58604 12.625C8.58135 12.6391 8.56729 12.6531 8.5626 12.6719C8.55791 12.6859 8.5626 12.7 8.55791 12.7188C8.55322 12.7422 8.54854 12.7703 8.54854 12.7938C8.54854 12.8313 8.54854 12.8688 8.55791 12.9016C8.5626 12.9156 8.55791 12.925 8.5626 12.9344C8.82979 13.8859 9.3501 14.7531 10.0626 15.4469C10.0673 15.4516 10.072 15.4563 10.0767 15.4563C10.1142 15.4891 10.1517 15.5125 10.1938 15.5313C10.2032 15.5359 10.2126 15.5453 10.222 15.5453C10.2735 15.5688 10.3298 15.5828 10.3907 15.5828C10.4235 15.5828 10.461 15.5781 10.4985 15.5688C11.9657 15.2219 12.6735 14.1766 12.9642 13.2438C13.1938 13.7969 13.5126 15.0438 12.4157 16.0797C12.4063 16.0844 12.4017 16.0984 12.3923 16.1078C12.3735 16.1313 12.3548 16.1547 12.3407 16.1828C12.322 16.2109 12.3079 16.2391 12.2985 16.2719C12.2938 16.2813 12.2845 16.2906 12.2798 16.3047V16.3516C12.2751 16.3844 12.2704 16.4172 12.2751 16.45C12.2751 16.4781 12.2798 16.5063 12.2892 16.5297C12.2938 16.5625 12.3079 16.5906 12.322 16.6188C12.3313 16.6469 12.3501 16.6703 12.3642 16.6938C12.3782 16.7078 12.3829 16.7266 12.3923 16.7406C12.4017 16.75 12.4157 16.7547 12.4251 16.7641C12.4485 16.7828 12.4767 16.8016 12.5048 16.8156C12.5329 16.8344 12.561 16.8484 12.5892 16.8578C12.6032 16.8625 12.6079 16.8719 12.622 16.8719C13.072 16.9844 13.536 17.0453 14.0001 17.0453C14.5251 17.0453 15.0501 16.9703 15.5517 16.825C15.6126 16.8063 15.6642 16.7781 15.711 16.7453C15.7157 16.7359 15.7204 16.7313 15.7298 16.7219C15.7626 16.6938 15.7954 16.6563 15.8188 16.6188C15.8282 16.6047 15.8329 16.5859 15.8423 16.5719C15.8517 16.5531 15.861 16.5344 15.8704 16.5109C16.3063 15.0672 15.7532 13.9281 15.0923 13.2109C15.6829 13.2906 16.9251 13.6375 17.2673 15.1047C17.272 15.1188 17.2814 15.1281 17.286 15.1422C17.2954 15.1656 17.3048 15.1891 17.3142 15.2125C17.3282 15.2406 17.347 15.2688 17.3704 15.2922C17.3845 15.3109 17.3985 15.3297 17.4173 15.3438C17.4407 15.3672 17.4735 15.3859 17.5064 15.4047C17.5204 15.4141 17.5392 15.4234 17.5532 15.4328C17.6095 15.4516 17.6657 15.4656 17.7267 15.4656C17.7595 15.4656 17.797 15.4609 17.8345 15.4563C17.8532 15.4516 17.8673 15.4375 17.8813 15.4328C17.9048 15.4234 17.9282 15.4141 17.9517 15.4C17.9845 15.3813 18.0173 15.3578 18.0454 15.3297C18.0548 15.3203 18.0642 15.3156 18.0735 15.3063C18.7626 14.5938 19.2501 13.7172 19.4845 12.7656C19.4892 12.7516 19.4845 12.7375 19.4892 12.7234C19.4938 12.6859 19.4939 12.6531 19.4939 12.6156C19.4892 12.5922 19.4845 12.5641 19.4798 12.5406ZM9.50479 9.98594C9.64541 9.53125 9.85166 9.10469 10.1235 8.71094C10.6017 9.62969 11.4079 10.1219 12.1438 10.3516C11.6235 10.5672 10.4938 10.8578 9.50479 9.98594ZM10.5407 14.5797C10.2126 14.2281 9.94541 13.8297 9.74385 13.4031C9.79072 13.4031 9.84229 13.4125 9.88916 13.4125C10.8595 13.4125 11.6376 12.9766 12.1767 12.4797C12.1017 13.0375 11.7876 14.1578 10.5407 14.5797ZM12.9642 6.79375C13.4282 6.69063 13.9063 6.65313 14.3798 6.69063C13.822 7.56719 13.7985 8.51406 13.9673 9.26875C13.522 8.92656 12.7017 8.10156 12.9642 6.79375ZM12.936 11.3875C12.936 10.8016 13.4142 10.3234 14.0001 10.3234C14.586 10.3234 15.0642 10.8016 15.0642 11.3875C15.0642 11.9734 14.586 12.4516 14.0001 12.4516C13.4142 12.4516 12.936 11.9734 12.936 11.3875ZM15.036 15.9813C14.572 16.0844 14.0938 16.1219 13.6204 16.0844C14.1782 15.2078 14.2017 14.2609 14.0329 13.5063C14.4782 13.8484 15.2985 14.6734 15.036 15.9813ZM17.4595 8.19531C17.7829 8.54688 18.0548 8.94063 18.2564 9.37188C17.2204 9.325 16.3907 9.775 15.8188 10.3C15.8938 9.74219 16.1985 8.62188 17.4595 8.19531ZM17.8767 14.0641C17.3985 13.1453 16.5923 12.6531 15.8563 12.4234C16.3767 12.2078 17.5017 11.9172 18.4954 12.7891C18.3548 13.2438 18.1485 13.6703 17.8767 14.0641Z" fill="#A9B1C4"/>
<path d="M14.0001 12.4514C14.5878 12.4514 15.0642 11.975 15.0642 11.3873C15.0642 10.7996 14.5878 10.3232 14.0001 10.3232C13.4124 10.3232 12.936 10.7996 12.936 11.3873C12.936 11.975 13.4124 12.4514 14.0001 12.4514Z" fill="white"/>
<path d="M15.0358 15.9811C14.5717 16.0842 14.0936 16.1217 13.6201 16.0842C14.1779 15.2077 14.2014 14.2608 14.0326 13.5061C14.4779 13.8483 15.2983 14.6733 15.0358 15.9811Z" fill="#E9E9E9"/>
<path d="M12.1435 10.3516C11.6231 10.5672 10.4935 10.8578 9.50439 9.98593C9.64502 9.53125 9.85127 9.10469 10.1231 8.71094C10.6013 9.62969 11.4075 10.1219 12.1435 10.3516Z" fill="#E9E9E9"/>
<path d="M12.1765 12.4795C12.1015 13.0373 11.7874 14.1576 10.5405 14.5795C10.2124 14.2279 9.94521 13.8295 9.74365 13.4029C9.79053 13.4029 9.84209 13.4123 9.88897 13.4123C10.8593 13.4123 11.6374 12.9764 12.1765 12.4795Z" fill="#E9E9E9"/>
<path d="M18.495 12.7889C18.3544 13.2436 18.1481 13.6701 17.8763 14.0639C17.3981 13.1451 16.5919 12.6529 15.856 12.4232C16.3763 12.2076 17.5013 11.917 18.495 12.7889Z" fill="#E9E9E9"/>
<path d="M18.2564 9.37188C17.2204 9.325 16.3907 9.775 15.8188 10.3C15.8938 9.74219 16.1985 8.62188 17.4595 8.19531C17.7829 8.54688 18.0548 8.94063 18.2564 9.37188Z" fill="#E9E9E9"/>
<path d="M13.9669 9.2686C13.5216 8.92642 12.7013 8.10142 12.9638 6.79361C13.4279 6.69048 13.906 6.65298 14.3794 6.69048C13.8216 7.56704 13.7982 8.51392 13.9669 9.2686Z" fill="#E9E9E9"/>
</svg>
